<svg id="svg" version="1.1" xmlns="http://www.w3.org/2000/svg" xmlns:xlink="http://www.w3.org/1999/xlink" width="400" height="400" viewBox="0, 0, 400,400"><g id="svgg"><path id="path0" d="M94.900 235.569 C 92.419 237.489,83.366 244.431,56.800 264.781 C 45.415 273.503,35.935 280.797,35.734 280.991 C 35.303 281.405,36.044 283.014,39.655 289.500 C 66.734 338.147,114.598 371.865,169.386 380.891 C 224.024 389.893,279.063 374.487,317.841 339.338 L 319.582 337.760 290.641 315.361 C 274.723 303.041,261.520 292.798,261.300 292.599 C 260.910 292.245,260.839 292.273,258.400 293.733 C 236.892 306.611,205.065 311.464,178.024 305.988 C 141.248 298.542,110.083 271.323,97.895 236.007 C 97.092 233.679,97.301 233.710,94.900 235.569 " stroke="none" fill="#34ab54" fill-rule="evenodd"></path><path id="path1" d="M200.000 202.100 L 200.000 237.400 249.200 237.400 C 276.260 237.400,298.400 237.474,298.400 237.565 C 298.400 237.998,296.733 244.402,296.002 246.776 C 290.411 264.938,278.489 280.906,262.848 291.183 C 261.942 291.778,261.204 292.318,261.209 292.383 C 261.214 292.447,274.326 302.638,290.346 315.030 L 319.474 337.560 321.613 335.560 C 340.354 318.049,356.294 292.273,365.062 265.300 C 373.138 240.460,376.685 209.293,374.088 186.000 C 373.504 180.766,371.574 169.426,370.880 167.150 C 370.778 166.817,366.533 166.800,285.387 166.800 L 200.000 166.800 200.000 202.100 " stroke="none" fill="#4484f3" fill-rule="evenodd"></path><path id="path2" d="M33.825 121.887 C 10.842 171.547,10.788 228.418,33.676 277.788 C 34.510 279.587,35.231 281.097,35.277 281.143 C 35.349 281.216,46.255 272.887,85.200 243.019 C 89.435 239.771,93.854 236.387,95.020 235.498 L 97.139 233.883 96.862 232.992 C 91.303 215.118,90.319 196.194,94.004 178.040 C 94.626 174.977,96.088 169.351,96.789 167.327 C 97.012 166.681,97.154 166.088,97.105 166.009 C 96.992 165.825,35.655 118.919,35.429 118.843 C 35.336 118.812,34.614 120.182,33.825 121.887 " stroke="none" fill="#fbbb04" fill-rule="evenodd"></path><path id="path3" d="M190.300 16.822 C 127.198 20.035,70.325 55.401,39.655 110.500 C 36.416 116.319,35.320 118.609,35.635 118.905 C 35.781 119.042,49.535 129.571,66.200 142.303 C 82.865 155.035,96.647 165.579,96.826 165.735 C 97.120 165.991,97.207 165.866,97.708 164.459 C 113.657 119.707,155.077 90.902,202.100 91.861 C 226.217 92.353,246.808 99.887,267.087 115.639 C 267.518 115.973,267.831 115.670,294.279 89.221 L 321.034 62.465 318.167 60.067 C 281.599 29.475,237.134 14.438,190.300 16.822 " stroke="none" fill="#ec4434" fill-rule="evenodd"></path><path id="path4" d="M285.288 166.750 C 353.294 166.790,370.709 166.851,370.835 167.050 C 370.948 167.228,370.995 167.199,370.997 166.950 C 371.000 166.617,366.813 166.602,285.450 166.650 L 199.900 166.700 285.288 166.750 M371.043 167.700 C 371.040 167.920,371.154 168.550,371.295 169.100 C 371.437 169.650,371.555 169.920,371.557 169.700 C 371.560 169.480,371.446 168.850,371.305 168.300 C 371.163 167.750,371.045 167.480,371.043 167.700 M371.632 170.400 C 371.624 170.565,371.739 171.240,371.888 171.900 C 372.037 172.560,372.160 172.875,372.160 172.600 C 372.162 172.039,371.656 169.931,371.632 170.400 M372.447 174.600 C 372.447 174.875,372.516 175.370,372.600 175.700 C 372.736 176.235,372.753 176.246,372.753 175.800 C 372.753 175.525,372.684 175.030,372.600 174.700 C 372.464 174.165,372.447 174.154,372.447 174.600 M373.246 179.400 C 373.246 179.785,373.288 179.942,373.338 179.750 C 373.388 179.558,373.388 179.243,373.338 179.050 C 373.288 178.858,373.246 179.015,373.246 179.400 M373.446 180.800 C 373.446 181.185,373.488 181.343,373.538 181.150 C 373.588 180.958,373.588 180.643,373.538 180.450 C 373.488 180.258,373.446 180.415,373.446 180.800 M373.646 182.200 C 373.646 182.585,373.688 182.743,373.738 182.550 C 373.788 182.358,373.788 182.043,373.738 181.850 C 373.688 181.658,373.646 181.815,373.646 182.200 M373.846 183.600 C 373.846 183.985,373.888 184.143,373.938 183.950 C 373.988 183.758,373.988 183.442,373.938 183.250 C 373.888 183.058,373.846 183.215,373.846 183.600 M374.054 185.200 C 374.054 185.695,374.093 185.898,374.141 185.650 C 374.189 185.403,374.189 184.998,374.141 184.750 C 374.093 184.503,374.054 184.705,374.054 185.200 M374.254 187.000 C 374.254 187.495,374.293 187.697,374.341 187.450 C 374.389 187.203,374.389 186.798,374.341 186.550 C 374.293 186.303,374.254 186.505,374.254 187.000 M374.460 189.200 C 374.460 189.805,374.497 190.053,374.543 189.750 C 374.589 189.447,374.589 188.953,374.543 188.650 C 374.497 188.347,374.460 188.595,374.460 189.200 M374.664 191.600 C 374.664 192.315,374.700 192.608,374.745 192.250 C 374.789 191.893,374.789 191.308,374.745 190.950 C 374.700 190.593,374.664 190.885,374.664 191.600 M374.875 195.500 C 374.875 196.710,374.908 197.179,374.948 196.543 C 374.988 195.906,374.987 194.916,374.947 194.343 C 374.907 193.769,374.874 194.290,374.875 195.500 M374.880 206.600 C 374.880 208.305,374.911 209.003,374.949 208.150 C 374.986 207.298,374.986 205.903,374.949 205.050 C 374.911 204.197,374.880 204.895,374.880 206.600 M374.671 212.100 C 374.670 213.090,374.704 213.520,374.746 213.056 C 374.788 212.592,374.789 211.782,374.747 211.256 C 374.706 210.730,374.672 211.110,374.671 212.100 M374.466 215.500 C 374.467 216.270,374.503 216.560,374.546 216.146 C 374.589 215.731,374.589 215.101,374.544 214.746 C 374.500 214.390,374.465 214.730,374.466 215.500 M374.262 218.300 C 374.263 218.960,374.300 219.206,374.345 218.846 C 374.389 218.487,374.389 217.947,374.343 217.646 C 374.297 217.346,374.261 217.640,374.262 218.300 M374.060 220.800 C 374.060 221.405,374.097 221.653,374.143 221.350 C 374.189 221.048,374.189 220.553,374.143 220.250 C 374.097 219.947,374.060 220.195,374.060 220.800 M373.857 222.900 C 373.859 223.450,373.898 223.651,373.944 223.347 C 373.989 223.043,373.988 222.593,373.941 222.347 C 373.893 222.101,373.856 222.350,373.857 222.900 M373.654 224.800 C 373.654 225.295,373.693 225.498,373.741 225.250 C 373.789 225.003,373.789 224.597,373.741 224.350 C 373.693 224.103,373.654 224.305,373.654 224.800 M373.454 226.600 C 373.454 227.095,373.493 227.298,373.541 227.050 C 373.589 226.803,373.589 226.398,373.541 226.150 C 373.493 225.903,373.454 226.105,373.454 226.600 M373.250 228.300 C 373.253 228.740,373.294 228.896,373.341 228.648 C 373.389 228.399,373.387 228.039,373.337 227.848 C 373.287 227.656,373.248 227.860,373.250 228.300 M373.046 229.800 C 373.046 230.185,373.088 230.343,373.138 230.150 C 373.188 229.957,373.188 229.643,373.138 229.450 C 373.088 229.257,373.046 229.415,373.046 229.800 M372.850 231.300 C 372.853 231.740,372.894 231.896,372.941 231.648 C 372.989 231.399,372.987 231.039,372.937 230.848 C 372.887 230.656,372.848 230.860,372.850 231.300 M372.508 233.308 C 372.430 233.927,372.409 234.475,372.459 234.526 C 372.510 234.577,372.615 234.112,372.692 233.492 C 372.770 232.873,372.791 232.325,372.741 232.274 C 372.690 232.223,372.585 232.688,372.508 233.308 M371.923 237.023 C 371.729 238.241,371.609 239.276,371.657 239.324 C 371.705 239.372,371.904 238.416,372.100 237.200 C 372.296 235.984,372.415 234.949,372.366 234.899 C 372.316 234.850,372.117 235.806,371.923 237.023 M249.054 237.550 L 298.207 237.601 298.084 238.150 C 298.017 238.453,297.880 239.015,297.782 239.400 C 297.683 239.785,297.610 240.235,297.619 240.400 C 297.638 240.735,298.073 239.242,298.283 238.123 L 298.418 237.400 249.159 237.450 L 199.900 237.499 249.054 237.550 M371.309 240.509 C 371.233 241.019,371.211 241.478,371.261 241.528 C 371.311 241.578,371.414 241.201,371.491 240.691 C 371.567 240.181,371.589 239.722,371.539 239.672 C 371.489 239.622,371.386 239.999,371.309 240.509 M370.515 244.515 C 370.216 246.013,370.010 247.277,370.057 247.323 C 370.103 247.370,370.386 246.183,370.685 244.685 C 370.984 243.187,371.190 241.923,371.143 241.877 C 371.097 241.830,370.814 243.017,370.515 244.515 M296.817 243.317 C 296.688 243.829,296.619 244.286,296.665 244.332 C 296.711 244.378,296.854 243.996,296.983 243.483 C 297.112 242.971,297.181 242.514,297.135 242.468 C 297.089 242.422,296.946 242.804,296.817 243.317 M296.218 245.418 C 296.083 245.870,296.009 246.276,296.054 246.321 C 296.099 246.366,296.247 246.033,296.382 245.582 C 296.517 245.130,296.591 244.724,296.546 244.679 C 296.501 244.634,296.353 244.967,296.218 245.418 M295.417 248.055 C 290.040 265.003,278.522 280.291,263.350 290.619 C 261.088 292.159,260.096 292.971,261.851 291.846 C 274.743 283.582,285.562 271.201,291.857 257.507 C 293.645 253.617,296.185 246.919,295.958 246.692 C 295.913 246.646,295.669 247.260,295.417 248.055 M369.614 248.714 C 369.477 249.328,369.403 249.870,369.450 249.917 C 369.497 249.964,369.648 249.500,369.786 248.886 C 369.923 248.272,369.997 247.730,369.950 247.683 C 369.903 247.636,369.752 248.100,369.614 248.714 M368.636 252.836 C 368.280 254.277,368.025 255.492,368.069 255.536 C 368.113 255.580,368.442 254.439,368.800 253.000 C 369.158 251.561,369.413 250.346,369.367 250.300 C 369.321 250.254,368.992 251.396,368.636 252.836 M367.617 256.717 C 367.488 257.229,367.419 257.686,367.465 257.732 C 367.511 257.778,367.654 257.396,367.783 256.883 C 367.912 256.371,367.981 255.914,367.935 255.868 C 367.889 255.822,367.746 256.204,367.617 256.717 M367.114 258.514 C 367.041 258.807,367.019 259.086,367.066 259.133 C 367.113 259.180,367.212 258.979,367.286 258.686 C 367.359 258.393,367.381 258.114,367.334 258.067 C 367.287 258.020,367.188 258.221,367.114 258.514 M366.325 261.225 C 366.025 262.227,365.815 263.082,365.858 263.125 C 365.902 263.168,366.183 262.385,366.483 261.383 C 366.784 260.382,366.994 259.527,366.950 259.483 C 366.906 259.439,366.625 260.223,366.325 261.225 M364.648 266.548 C 364.077 268.268,363.643 269.710,363.684 269.751 C 363.725 269.792,364.227 268.419,364.800 266.700 C 365.373 264.981,365.807 263.540,365.764 263.497 C 365.721 263.454,365.219 264.827,364.648 266.548 M362.901 271.545 C 354.448 295.172,340.068 317.583,322.137 335.072 C 320.687 336.486,319.950 337.282,320.500 336.841 C 321.643 335.924,326.390 331.108,329.214 328.000 C 342.129 313.790,352.670 297.121,360.130 279.110 C 361.874 274.900,363.651 270.184,363.537 270.070 C 363.493 270.026,363.207 270.690,362.901 271.545 " stroke="none" fill="#3c8ecd" fill-rule="evenodd"></path></g></svg>