<svg xmlns="http://www.w3.org/2000/svg" xmlns:xlink="http://www.w3.org/1999/xlink" width="29.739" height="29.739" viewBox="0 0 29.739 29.739">
  <defs>
    <clipPath id="clip-path">
      <path id="Mask" d="M24.74,14.844H19.792V9.9H14.411a7.422,7.422,0,1,1,0-4.949h12.8V9.9H24.74v4.946ZM7.422,4.948A2.474,2.474,0,1,0,9.9,7.422,2.478,2.478,0,0,0,7.422,4.948Z" transform="translate(0 19.243) rotate(-45)" fill="#d1d1d1"/>
    </clipPath>
  </defs>
  <g id="ic_vpn_key_1" data-name="ic_vpn_key 1" transform="translate(0 0)">
    <path id="Mask-2" data-name="Mask" d="M24.74,14.844H19.792V9.9H14.411a7.422,7.422,0,1,1,0-4.949h12.8V9.9H24.74v4.946ZM7.422,4.948A2.474,2.474,0,1,0,9.9,7.422,2.478,2.478,0,0,0,7.422,4.948Z" transform="translate(0 19.243) rotate(-45)" fill="#4786ff"/>
  </g>
</svg>
