<svg width="42" height="42" viewBox="0 0 42 42" fill="none" xmlns="http://www.w3.org/2000/svg">
<rect width="42" height="42" rx="21" fill="#0088CC"/>
<path d="M8.42391 21.0694L13.954 23.1437L16.0945 30.0617C16.2314 30.5048 16.7706 30.6686 17.1284 30.3745L20.211 27.8491C20.5341 27.5845 20.9943 27.5713 21.332 27.8176L26.8919 31.8743C27.2747 32.1539 27.817 31.9431 27.913 31.4783L31.9859 11.7895C32.0907 11.2817 31.5942 10.8581 31.1131 11.0451L8.41743 19.8439C7.85735 20.061 7.86223 20.8579 8.42391 21.0694ZM15.7495 22.0395L26.5574 15.3498C26.7516 15.2299 26.9515 15.4939 26.7847 15.6494L17.865 23.9818C17.5515 24.2751 17.3493 24.6676 17.292 25.0937L16.9882 27.3566C16.9479 27.6587 16.5256 27.6887 16.4426 27.3963L15.2741 23.2698C15.1402 22.7992 15.3353 22.2965 15.7495 22.0395Z" fill="white"/>
</svg>
